# xmcd
#
# Track frame offsets:
#	150
#	20277
#	91117
#	111122
#	137040
#
# Disc length: 2336 seconds
#
# Revision: 1
# Processed by: cddbd v1.5.2PL0 Copyright (c) Steve Scherf et al.
# Submitted via: EasyCDDAExtractor 15.3.0.1
#
DISCID=33091e05
DTITLE=Daniela Romo - En Vivo Desde El Teatro Alameda - CD 2
DYEAR=1998
DGENRE=Latin
TTITLE0=De Mi Enamorate
TTITLE1=Un Mundo Raro, Mia, Cien Años, Dame Un Poco De Ti, Cheque En Blanco, A
TTITLE1=buso
TTITLE2=Cuidado Con Los Ladrones
TTITLE3=Matame
TTITLE4=Que Vengan Los Bomberos
EXTD=YEAR: 1997
EXTT0=
EXTT1=
EXTT2=
EXTT3=
EXTT4=
PLAYORDER=
